<svg width="88" height="87" viewBox="0 0 88 87" fill="none" xmlns="http://www.w3.org/2000/svg">
<g clip-path="url(#clip0_212_234)">
<path d="M0 75.7821C0 81.9781 5.08028 87 11.3468 87H76.6528C82.9204 87 88 81.9774 88 75.7821V11.2182C88 5.02187 82.9197 0 76.6532 0H11.3472C5.07959 0 0 5.02255 0 11.2179V75.7818V75.7821Z" fill="#563D7C"/>
<path d="M36.4919 38.4852V26.1648H47.4613C48.5063 26.1648 49.5135 26.2508 50.4836 26.4231C51.4536 26.5951 52.312 26.9023 53.0583 27.3451C53.8042 27.7879 54.4013 28.4027 54.8492 29.1894C55.2968 29.9765 55.5209 30.9848 55.5209 32.214C55.5209 34.4274 54.8492 36.0261 53.5058 37.0096C52.1628 37.9934 50.4464 38.4852 48.3568 38.4852H36.4919ZM24.7759 17.1641V69.8398H50.5956C52.9837 69.8398 55.3095 69.5449 57.5731 68.9546C59.8367 68.3642 61.8514 67.4545 63.6176 66.2249C65.3834 64.9954 66.789 63.409 67.8337 61.4664C68.8787 59.5235 69.4008 57.2242 69.4008 54.5683C69.4008 51.2728 68.5923 48.4572 66.9757 46.1211C65.3587 43.7847 62.9084 42.1494 59.6249 41.2148C62.0129 40.0838 63.8166 38.6327 65.0355 36.8621C66.2541 35.0915 66.8636 32.8784 66.8636 30.2222C66.8636 27.7631 66.4532 25.6975 65.6323 24.0252C64.8114 22.3531 63.6547 21.0128 62.1621 20.0045C60.6699 18.9962 58.879 18.2706 56.7893 17.8281C54.7 17.3853 52.3866 17.1641 49.8493 17.1641H24.7759ZM36.4919 60.8391V46.3791H49.2523C51.7895 46.3791 53.8293 46.9568 55.3717 48.113C56.9138 49.2688 57.6851 51.1991 57.6851 53.9042C57.6851 55.2816 57.4486 56.4126 56.976 57.2979C56.5033 58.1832 55.8691 58.8843 55.073 59.4005C54.2772 59.9171 53.3566 60.2858 52.312 60.5074C51.267 60.7283 50.1728 60.8391 49.0285 60.8391H36.4919Z" fill="white"/>
</g>
<defs>
<clipPath id="clip0_212_234">
<rect width="88" height="87" fill="white"/>
</clipPath>
</defs>
</svg>
