<svg width="120" height="119" viewBox="0 0 120 119" fill="none" xmlns="http://www.w3.org/2000/svg">
<path d="M22.1325 101.154L13.71 7.4375H106.29L97.8562 101.139L59.9437 111.562L22.1325 101.154Z" fill="#1572B6"/>
<path d="M60 103.597L90.6375 95.1737L97.845 15.1016H60V103.597Z" fill="#33A9DC"/>
<path d="M60 49.0536H75.3375L76.395 37.2837H60V25.7891H89.0625L88.785 28.8719L85.9387 60.5482H60V49.0536Z" fill="white"/>
<path d="M60.0711 78.9033L60.0186 78.9181L47.1112 75.4597L46.2862 66.293H34.6499L36.2737 84.3401L60.0149 90.8776L60.0711 90.8627V78.9033Z" fill="#EBEBEB"/>
<path d="M74.351 60.0625L72.956 75.4544L60.0298 78.9128V90.8724L83.7898 84.3422L83.966 82.401L85.9798 60.0625H74.351Z" fill="white"/>
<path d="M60.0411 25.7891V37.2837H32.0436L31.8111 34.6992L31.2824 28.8719L31.0049 25.7891H60.0411ZM59.9999 49.0536V60.5482H47.2536L47.0211 57.9637L46.4961 52.1364L46.2186 49.0536H59.9999Z" fill="#EBEBEB"/>
</svg>
