<svg width="120" height="120" viewBox="0 0 120 120" fill="none" xmlns="http://www.w3.org/2000/svg">
<path d="M67.3652 119.746C65.8015 119.473 64.1815 118.73 63.2627 117.909C62.639 117.255 62.2831 116.39 62.2652 115.486C62.2652 114.568 62.734 113.278 63.4765 111.991C63.9265 111.268 64.279 110.488 64.5302 109.666C64.6877 109.1 65.0177 108.181 65.2727 107.596L65.7227 106.524L65.839 99.3577C65.899 95.3939 66.0152 91.7227 66.1127 91.1527C66.3677 89.5102 66.7952 87.9089 67.3615 86.3489L67.7927 85.3139L67.1665 84.9427C66.6002 84.5902 66.1315 84.1027 64.2752 81.8939C61.9915 79.1977 58.984 77.7127 54.724 77.2064C53.3365 77.0714 51.9302 76.9702 50.524 76.9139C44.2727 76.6214 40.699 75.3127 37.4777 72.1477C35.074 69.7852 33.8252 67.0289 33.319 62.9677C32.6365 57.4777 31.8752 54.6652 30.469 52.3814C30.1224 51.8174 29.7231 51.2875 29.2765 50.7989L28.7102 50.2327L27.4615 51.0352C26.779 51.4852 25.819 52.0514 25.3502 52.3064C23.7865 53.1652 22.3015 54.1214 20.8765 55.1564C17.3815 57.6952 13.5715 60.8789 11.4827 62.9677C10.5452 63.9052 10.0577 64.3139 9.84022 64.2764C8.41522 64.0627 9.50647 57.8902 11.8315 53.2402C14.8015 47.2439 19.8002 41.7164 25.5827 37.9852C30.3302 34.9177 38.0065 30.6989 41.5577 29.2139C47.8652 26.5777 56.029 23.7239 61.6165 22.2014C62.7902 21.8677 63.5102 21.5752 63.9977 21.2452C65.0927 20.4839 66.1652 20.1127 67.3952 20.0939C68.4302 20.0752 68.5277 20.0564 69.5252 19.3889C70.699 18.6277 71.0477 18.5864 72.2215 18.9989L72.9827 19.2727L73.9202 18.6277L74.8577 18.0014L76.204 18.0202C77.239 18.0389 77.7077 18.0014 78.1577 17.8064C78.724 17.5514 78.7427 17.5139 78.9002 16.5764C79.2527 14.5439 79.2902 13.5277 79.0765 12.2977C78.8027 10.6777 78.7652 4.38891 79.039 3.15516C79.3315 1.82766 79.5265 1.55391 80.524 1.06641C82.009 0.342656 83.1227 0.128906 85.6802 0.128906C88.804 0.128906 90.3865 0.560156 91.5602 1.69266C92.614 2.70891 92.7902 5.09016 92.2427 10.6777C91.909 13.8989 91.8715 14.7989 91.969 16.9064C92.0065 18.2527 92.104 19.5239 92.1452 19.7002C92.224 20.0339 92.3027 20.0527 93.4352 20.0714C94.549 20.0902 94.744 20.1502 95.7977 20.6977C96.814 21.2264 97.5752 21.8714 97.7327 22.3402C97.7515 22.4377 97.9277 22.4377 98.239 22.3402C98.8427 22.1639 99.3715 22.3589 99.8027 22.8877C100.058 23.2214 100.211 23.2777 100.8 23.2777C101.603 23.2777 101.895 23.4727 102.559 24.4514C102.869 24.8907 103.295 25.2358 103.789 25.4489C104.884 25.9964 106.369 27.5189 106.935 28.7302C107.813 30.5264 107.989 32.6152 107.441 34.4902C107.246 35.1952 107.246 35.2139 107.655 35.8964C108.514 37.3627 108.829 39.1589 108.476 40.6814L108.281 41.5814L108.866 42.1664C111.776 45.0764 111.345 49.8239 107.794 54.0614C107.397 54.5454 107.062 55.077 106.796 55.6439C106.114 57.4589 105.33 58.7302 104.318 59.7839L103.283 60.8377H102.229C101.175 60.8377 99.6902 60.4852 98.7902 60.0164C98.419 59.8214 98.4002 59.8214 98.479 60.0539C98.7152 60.9127 99.3002 64.4077 99.4952 66.3427C99.8065 69.3127 99.709 73.6289 99.3002 75.4852C99.0015 76.86 98.5011 78.183 97.8152 79.4114C97.4252 80.0377 97.4065 80.1727 97.4815 80.9339C97.5977 82.0064 97.3465 83.8064 96.9152 84.9952C96.3865 86.3827 96.1915 87.0277 96.0752 87.7289C95.9777 88.3327 95.9777 88.3327 96.409 88.3327C96.9752 88.3327 97.2865 88.6664 97.2865 89.3302C97.2865 89.6227 97.0315 91.2052 96.7202 92.8252C95.8615 97.3777 95.8015 97.8839 95.8015 102.298C95.7827 106.85 95.7827 106.809 96.8177 107.491L99.1427 108.995C101.143 110.323 103.285 111.423 105.529 112.276C108.791 113.566 109.241 113.896 109.241 114.991C109.241 115.479 109.144 115.655 108.735 116.045C107.486 117.256 105.023 117.53 100.061 117.001C97.4835 116.76 94.8958 116.636 92.3065 116.63C85.4702 116.533 84.4727 116.296 83.5765 114.598C83.0702 113.623 83.1677 112.351 83.869 110.263C84.1802 109.344 84.454 108.406 84.6902 107.45C85.159 105.185 84.8477 102.489 83.7527 99.4439L82.8152 96.8452C81.8965 94.2089 81.3902 89.3827 81.9377 88.2914C82.0352 88.0777 82.2115 88.0364 82.6802 88.0552L83.2652 88.1152L83.7527 87.0989C84.124 86.2964 84.5327 85.7714 85.6465 84.6577L87.0715 83.2327L86.9927 82.3139C86.9327 81.4364 85.7815 77.1764 85.624 77.1952C85.564 77.1952 85.2527 77.6264 84.9002 78.1702C84.0415 79.4602 82.1477 81.4514 81.0715 82.1752C80.6027 82.4864 80.2127 82.8577 80.2127 82.9777C80.194 83.5064 79.744 84.5414 79.1965 85.2614C78.6677 85.9664 78.6302 86.0827 78.709 86.7052C78.844 87.6239 78.5515 90.5714 78.2027 92.1164C77.8866 93.2636 77.4544 94.3756 76.9127 95.4352C75.5665 98.2289 74.5502 100.726 74.2952 101.881C74.1111 102.993 73.9934 104.115 73.9427 105.241C73.8827 106.569 73.7477 107.859 73.6502 108.133C73.5152 108.504 73.5152 108.796 73.6315 109.363C73.729 109.771 73.789 110.69 73.7665 111.414C73.7477 112.411 73.8265 113.056 74.119 114.226C74.6252 116.218 74.7227 117.47 74.4902 118.213C74.3327 118.681 74.179 118.858 73.6502 119.113C72.4765 119.716 69.1577 120.05 67.3615 119.739L67.3652 119.746ZM72.109 118.145C72.7915 117.95 73.3802 117.365 73.3802 116.836C73.3802 116.6 73.1852 115.918 72.949 115.314C72.4802 114.163 71.6777 111.114 71.6777 110.608C71.6777 110.353 71.6965 110.334 72.0865 110.548L72.5177 110.784V110.236C72.4551 109.732 72.3434 109.234 72.184 108.751C71.8127 107.638 71.7752 107.619 69.409 107.48L67.8077 107.401L67.2227 107.968C66.9011 108.299 66.6191 108.666 66.3827 109.063C66.1277 109.569 66.0302 110.334 66.1877 110.506C66.2252 110.566 66.619 110.506 67.0465 110.409C67.3003 110.333 67.5621 110.288 67.8265 110.274C67.8265 110.293 67.3952 110.645 66.8515 111.016C64.5077 112.775 63.6865 113.848 63.6865 115.216C63.6865 116.641 65.0327 117.755 67.144 118.089C68.5877 118.303 71.4002 118.363 72.1052 118.149L72.109 118.145ZM103.886 115.82C104.471 115.115 104.393 114.395 103.65 113.574C103.219 113.143 102.731 112.771 102.184 112.479C101.636 112.186 101.089 111.853 100.541 111.504C99.5512 110.862 98.5341 110.263 97.4927 109.708C96.5927 109.22 95.7152 108.71 94.8565 108.166L94.504 107.893V102.523C94.504 97.2314 94.4852 97.1527 94.2115 97.2314C92.8427 97.6027 90.5777 97.7789 87.709 97.7189L84.604 97.6814L85.054 98.7764C85.894 100.846 86.3252 103.621 86.3252 106.805C86.3252 107.998 86.2465 108.425 85.954 109.265C85.7965 109.674 85.6615 110.086 85.5227 110.495C85.4627 110.671 85.6802 110.806 86.479 111.043C87.064 111.219 87.9227 111.395 88.414 111.451L89.314 111.549L89.2165 112.449C89.119 113.465 89.2352 114.538 89.4902 114.871C89.6477 115.066 90.2327 115.145 92.9477 115.261C94.999 115.359 97.2265 115.573 98.9815 115.828C100.504 116.064 102.146 116.259 102.634 116.259C103.455 116.278 103.534 116.24 103.883 115.828L103.886 115.82ZM72.619 106.681C72.6977 106.621 72.814 105.568 72.8552 104.319C73.0127 100.824 73.1477 100.314 74.9065 96.3689C76.3502 93.1477 77.1152 90.1402 77.0552 88.0102L77.0177 86.7389L76.4702 87.2677C75.3377 88.4002 76.1177 86.6227 77.4677 85.0402C78.484 83.8289 78.8365 83.1652 78.9902 82.0927C79.069 81.6614 79.2265 81.4477 79.8902 80.9414C82.3737 79.0653 84.2873 76.5363 85.4177 73.6364C85.6915 72.9314 86.3927 70.5314 86.9815 68.3039C88.0765 64.1827 88.6615 62.4052 89.1902 61.6439C89.3852 61.3514 89.464 61.2914 89.4265 61.4864C89.1433 62.5338 88.9216 63.5969 88.7627 64.6702C88.6052 65.6264 88.3127 67.5014 88.1177 68.8102C87.7465 71.4877 87.3565 73.2052 86.8277 74.5327L86.4752 75.4327L87.4127 77.8552C88.3877 80.3339 88.8377 82.1339 88.9165 83.8702L88.9765 84.8452L88.2152 85.0027C87.2105 85.1805 86.3139 85.741 85.714 86.5664C85.0502 87.5227 84.679 88.3064 84.8552 88.4789C84.934 88.5577 85.8902 88.7339 86.9852 88.8689C88.684 89.0639 89.329 89.0639 91.5752 88.9289C92.5502 88.8914 93.5102 88.7939 94.4665 88.6552C94.6802 88.5764 94.8977 88.1489 95.2465 87.0352C96.049 84.4777 96.2027 83.5777 96.1052 81.7814L96.0265 80.1989L96.4352 79.6702C97.3915 78.4589 98.134 76.2727 98.4452 73.7114C98.8165 70.5877 98.134 64.0439 96.8627 58.4189C96.259 55.7414 96.004 54.1402 96.004 52.9702V51.9352L95.0477 52.0327C91.609 52.4039 87.4502 52.3064 84.9115 51.7777C83.524 51.5039 80.029 50.4689 79.2677 50.1352L78.664 49.8614L78.5852 50.5439C78.5252 50.9152 78.469 51.2864 78.3902 51.6764C78.274 52.0852 78.3115 52.1827 79.0352 52.8877C79.9352 53.8064 80.209 54.2752 80.209 54.8977C80.209 55.2877 79.9952 55.6027 78.9002 56.7352C78.1151 57.5729 77.2441 58.3258 76.3015 58.9814L75.0302 59.8402L74.4827 61.7339C72.529 68.6677 72.1577 74.9752 73.4477 79.4864L73.759 80.6189L73.1327 81.3989C70.789 84.3464 69.4015 86.5927 69.1877 87.8452C69.0628 88.4619 68.9189 89.0747 68.7565 89.6827C68.2502 91.6177 67.8565 94.4489 67.684 97.5164C67.5638 100.084 67.395 102.65 67.1777 105.211L67.0802 105.973L68.0552 106.265C68.6027 106.441 69.424 106.636 69.8927 106.715C70.7702 106.85 72.394 106.813 72.6452 106.678L72.619 106.681ZM91.5827 95.9377C93.1052 95.8402 94.4927 95.6039 94.7665 95.3714C94.8827 95.2927 95.0215 94.8839 95.059 94.4714L95.1565 93.7289L93.9452 94.0027C92.989 94.1977 92.0327 94.3139 91.0727 94.3927C88.7665 94.4902 86.4452 94.4302 84.1577 94.1977C83.3965 94.0814 83.3965 94.0814 83.629 95.0752C83.824 95.8177 83.8652 95.8552 85.8565 95.9939C87.184 96.1102 89.0402 96.0914 91.579 95.9339L91.5827 95.9377ZM90.3115 92.5402C92.3027 92.3639 94.7852 91.9364 95.2727 91.6814C95.4302 91.6027 95.5652 91.3102 95.6252 90.9764L95.8015 89.9414L95.899 89.4539L95.4115 89.5514C93.244 90.0014 91.6015 90.1364 88.3202 90.1364C85.1177 90.1364 84.7465 90.1177 83.9065 89.8252C83.5837 89.6891 83.24 89.6092 82.8902 89.5889C82.7552 89.6677 82.7327 90.7814 82.8527 91.5614C82.9315 92.0302 83.0102 92.1089 83.479 92.2439C84.964 92.6527 87.4652 92.7502 90.3152 92.5177L90.3115 92.5402ZM54.064 74.9227C59.0627 73.4789 65.6065 69.2377 70.9577 63.9277C72.6977 62.1877 72.9115 61.9552 73.144 61.1752L73.4552 60.1777C73.4927 60.0989 73.1815 59.9639 72.7727 59.8664C71.7002 59.6114 70.879 58.9889 70.879 58.4227C70.879 58.0889 70.684 57.7589 70.1177 57.1514C69.199 56.1164 68.9665 55.6664 68.869 54.6727L68.7902 53.8702L67.6952 53.0902C67.069 52.6402 64.8827 51.4289 62.5577 50.2589C60.7875 49.3953 59.0547 48.4569 57.364 47.4464C55.4102 46.1377 54.1015 44.5739 53.359 42.7214C53.224 42.3502 53.0477 42.0389 52.9877 42.0389C52.8302 42.0389 48.4352 46.2764 46.5602 48.2677C41.9327 53.1502 38.749 57.3877 36.7352 61.3139C36.229 62.2889 35.6815 63.4439 35.524 63.8714L35.2315 64.6514L35.584 65.9602C35.7977 66.6652 36.2477 67.8164 36.6002 68.4989C37.8302 70.9214 39.2965 72.3839 41.719 73.5764C44.3177 74.8664 46.6202 75.3164 50.4677 75.2564C52.5377 75.2377 53.1452 75.1777 54.0602 74.9039L54.064 74.9227ZM14.6102 57.7927C17.8915 54.8827 22.4215 51.6989 27.9715 48.3989C31.6052 46.2314 45.649 39.2002 52.114 36.3277C53.2877 35.7989 54.3415 35.3114 54.4577 35.2552C54.574 35.1764 54.9077 34.3364 55.219 33.3989C56.5877 29.0639 57.2702 28.2052 59.749 27.6389C60.0602 27.5602 60.139 27.4627 60.139 27.1514C60.139 26.5852 60.529 25.2764 60.8627 24.6914C61.1177 24.2414 61.1177 24.2227 60.9002 24.2827C60.7652 24.3202 59.944 24.5564 59.0852 24.8114C47.1715 28.2502 36.7615 32.8177 27.7765 38.5214C18.1877 44.6152 12.6602 51.9202 11.059 60.6689L10.9427 61.3139L12.1165 60.1627C12.7427 59.5177 13.8752 58.4639 14.6177 57.8189L14.6102 57.7927ZM102.99 59.4539C103.946 58.9664 105.431 56.7202 105.979 54.9427C106.136 54.3164 106.448 53.7314 106.898 53.2439C108.341 51.6427 109.534 48.7327 109.553 46.7414C109.553 43.6364 107.794 42.4439 105.236 43.7714C104.903 43.9289 104.633 44.0452 104.591 44.0077C104.456 43.8727 105.176 43.1677 106.058 42.6202C107.209 41.8589 107.426 41.4089 107.426 39.7889C107.443 38.4795 107.054 37.1969 106.313 36.1177C105.96 35.5889 105.825 35.2402 105.881 35.0227L106.234 33.7139C106.721 31.9739 106.545 29.9827 105.784 28.7152C104.651 26.8027 103.264 25.8652 101.329 25.7077L100.196 25.6289L100.86 26.3714C102.833 28.5014 103.789 31.1752 103.399 33.4627C103.204 34.6364 103.028 34.8689 101.895 35.3189L101.231 35.5927L101.31 36.4927C101.445 37.9589 101.194 39.0314 100.256 41.0039C99.7877 42.0014 99.4352 42.8977 99.4765 42.9952C99.5927 43.3289 100.883 43.9514 101.899 44.2064L102.896 44.4427L102.27 44.6564C101.449 44.9114 101.273 45.2827 101.273 46.6289C101.273 47.8589 101.449 48.3689 102.345 49.7152C102.754 50.3002 103.028 50.9077 103.069 51.2564C103.148 51.8039 103.129 51.8414 102.679 51.9989C102.169 52.1421 101.644 52.2276 101.115 52.2539C99.2777 52.3702 99.1427 52.4302 98.3215 53.2102C97.579 53.9152 97.5602 53.9527 97.5602 54.7327C97.5602 55.8052 97.969 57.9764 98.224 58.2689C98.5577 58.6214 100.41 59.5402 101.134 59.6752C101.758 59.8319 102.418 59.7559 102.99 59.4614V59.4539ZM75.9377 57.9914C77.1302 57.0539 78.0677 56.1164 78.5927 55.3139C78.9265 54.8264 78.9452 54.7289 78.7877 54.3164C78.514 53.6902 76.7177 52.0702 75.7202 51.5827C75.0556 51.2849 74.3525 51.0817 73.6315 50.9789L72.4015 50.8214L71.6402 49.8652C70.0577 47.9114 69.1802 46.3889 67.9277 43.4377C66.8327 40.9364 65.8765 39.4739 64.354 38.0264C63.7277 37.4414 63.2815 36.9539 63.319 36.9539C63.3977 36.9539 64.1402 37.3252 64.999 37.7752C66.424 38.5364 66.6002 38.5964 67.2452 38.4989C69.5702 38.2252 71.6215 35.5514 72.364 31.8014C72.5777 30.7477 73.009 29.6714 73.459 29.0264C73.4777 29.0077 74.3777 29.5927 75.4315 30.3539C78.109 32.2477 78.694 32.5402 80.2165 32.6002C81.214 32.6377 81.7802 32.5627 83.5765 32.1314C87.4052 31.1939 91.5452 30.8227 94.0652 31.1564C95.4902 31.3514 97.5415 31.9777 99.064 32.6977C100.568 33.4027 100.86 33.4402 101.348 33.0089C101.756 32.6564 101.756 32.6002 101.756 31.2914C101.738 29.3564 101.033 27.2677 99.9602 26.0189C99.4127 25.3739 97.8715 24.3202 96.3452 23.5177C95.8027 23.2299 95.2627 22.9374 94.7252 22.6402C94.0015 22.2089 93.184 22.2689 90.9565 22.8539C88.3765 23.5177 87.694 23.5177 84.7465 22.7564C82.2452 22.1302 82.0915 22.1114 79.6277 22.5014C78.319 22.6964 75.0377 22.5802 73.9427 22.2877C73.3952 22.1302 72.8477 21.9764 72.3227 21.7814C71.3665 21.4102 69.7052 21.3502 68.2015 21.6239C65.2127 22.1527 62.9477 23.7727 62.1265 25.9777C61.6952 27.0914 61.7552 27.6202 62.3215 27.9689C63.2215 28.5352 64.4102 30.0802 64.4102 30.6839C64.4102 30.7214 64.1177 30.4702 63.784 30.1177C62.944 29.2402 62.1827 28.8464 61.2827 28.8464C60.7004 28.8626 60.1342 29.0411 59.6479 29.3617C59.1616 29.6824 58.7745 30.1325 58.5302 30.6614C58.2674 31.3514 58.0458 32.0564 57.8665 32.7727C57.319 34.7639 56.8315 35.8214 55.7965 37.2277C54.8777 38.4989 54.7427 39.0652 55.0727 40.4902C55.894 44.0827 57.319 45.5302 63.274 48.9089C66.3977 50.6864 67.999 51.6839 69.1727 52.5614C70.0727 53.2252 70.0915 53.2664 70.0127 53.7727C69.8365 54.9464 70.579 56.2139 72.0452 57.2489C72.4165 57.5039 72.649 57.7777 72.649 57.9727C72.649 58.3252 73.6465 58.8127 74.3665 58.8127C74.7752 58.8127 75.0902 58.6364 75.9302 57.9914H75.9377ZM100.02 51.4064C102.285 51.4852 102.401 51.3089 101.194 49.9027C99.9227 48.4364 99.574 47.2477 100.043 45.9389L100.238 45.4327L99.4352 45.0427C99.1615 44.9077 98.8877 44.7689 98.614 44.6714C98.479 45.2002 98.3402 45.7064 98.224 46.2352C97.9315 47.4277 97.579 50.5139 97.5602 51.8227C97.5602 51.9389 97.7552 51.9014 98.089 51.6877C98.5577 51.4139 98.794 51.3764 100.024 51.4139L100.02 51.4064ZM92.4227 51.2902C93.7915 51.2114 95.1977 51.1139 95.569 51.0539L96.2515 50.9564L96.3302 48.7102C96.4465 45.5077 96.9152 43.6139 98.3027 40.5839C99.2777 38.4352 99.709 36.5602 99.4952 35.1539C99.4165 34.5502 99.379 34.5089 98.5577 34.1564C97.0539 33.5593 95.4879 33.1329 93.889 32.8852C92.3477 32.6714 87.814 32.7877 86.1152 33.1214C85.4102 33.2377 84.124 33.5114 83.2652 33.7252C81.1352 34.2127 80.0027 34.1564 78.3827 33.4514C76.7815 32.7464 75.7652 32.1052 74.809 31.2052C74.0477 30.5002 73.969 30.4627 73.774 30.6989C73.6165 30.8752 73.5377 31.4039 73.4815 32.5364C73.4215 34.2764 73.1477 35.1914 72.3865 36.4214C72.2173 36.6745 72.0729 36.9432 71.9552 37.2239C71.9552 37.2839 72.5402 37.9664 73.264 38.7089C75.7652 41.3077 76.9952 41.9714 78.9677 41.8327C79.6127 41.7727 80.0627 41.7952 80.0627 41.8702C80.0627 42.0277 78.7915 43.0214 78.2665 43.2952C78.0115 43.4302 77.9552 43.5689 77.9927 43.8614L78.304 45.9127C78.4802 47.0864 78.6152 47.6302 78.7915 47.7877C79.2602 48.1777 81.6827 49.4302 83.2052 50.0527C85.1965 50.8552 86.2915 51.1477 87.814 51.2827C89.689 51.4402 89.7265 51.4402 92.4227 51.2827V51.2902ZM76.2715 49.1414C76.309 49.0814 76.174 47.9489 75.919 46.6402C75.6077 44.8627 75.4315 44.2177 75.2365 44.0414C75.1015 43.9252 74.3777 43.4152 73.654 42.8902C72.703 42.2064 71.802 41.4557 70.9577 40.6439L69.6115 39.3164L68.8877 39.6877L68.1265 40.0964C68.1905 40.4015 68.2952 40.6966 68.4377 40.9739C68.6515 41.4427 69.0827 42.5939 69.394 43.5314C70.2152 45.9727 70.8602 47.1464 72.4802 49.2727L73.084 50.0752L74.2352 50.2514C74.8802 50.3489 75.5252 50.4877 75.7015 50.5439C75.9752 50.6602 76.0127 50.6039 76.0915 49.9777C76.129 49.7039 76.189 49.4114 76.2677 49.1377L76.2715 49.1414ZM101.018 24.8452C102.015 24.7477 102.191 24.6089 101.76 24.1627C101.486 23.8889 100.86 23.8702 100.354 24.1027C100.02 24.2602 99.9452 24.2189 99.4165 23.6527C98.869 23.0489 98.8315 23.0264 98.1452 23.1052C97.519 23.1839 97.4215 23.1652 97.3427 22.9102C97.0988 22.4913 96.7957 22.1098 96.4427 21.7777C95.9992 21.2736 95.4446 20.8795 94.8227 20.6264C93.6115 20.1577 92.929 20.2177 91.774 20.8627C88.4327 22.6777 88.5715 22.6589 85.3465 21.8377C82.339 21.0764 80.0927 20.2964 79.369 19.8052C78.7652 19.3964 77.4752 18.9464 76.399 18.8077C75.5965 18.6914 75.0902 18.8677 74.329 19.4902L73.9202 19.8239L74.2915 20.4689C74.7977 21.3689 74.7415 21.4252 73.9802 20.7614C73.159 20.0789 72.184 19.6102 71.5577 19.5877C71.1077 19.5877 69.7802 20.1727 69.6227 20.4277C69.5627 20.5064 69.9752 20.6039 70.5227 20.6414C71.089 20.7014 71.869 20.8964 72.3977 21.1102C73.7665 21.6952 74.4677 21.8902 75.7165 22.0102C77.0852 22.1452 79.564 21.9914 79.8565 21.7552C80.014 21.6202 80.4415 21.5977 81.3415 21.6764C82.534 21.7552 83.0215 21.8714 85.8527 22.6327C87.4952 23.0827 88.6465 23.0414 90.6002 22.5164C91.5002 22.2614 92.6327 22.0102 93.1015 21.9502C93.904 21.8714 94.0577 21.9127 95.3102 22.4789C97.3015 23.3789 98.359 23.9452 98.944 24.4702C99.529 24.9764 99.6077 24.9764 101.014 24.8602L101.018 24.8452ZM89.884 21.4289L91.0765 20.8027L91.039 19.5914C91.0202 18.7514 90.979 17.9302 90.9415 17.1127L90.844 15.8639L89.6515 16.7827C88.9465 17.3302 88.264 17.7389 87.9715 17.7989C87.1127 17.9564 82.8752 17.7989 82.4815 17.5852C81.9569 17.1977 81.4664 16.7661 81.0152 16.2952L79.9202 15.1814L79.9015 15.8452C79.9015 16.1977 79.864 16.8014 79.7852 17.1727C79.6877 17.8777 79.6877 17.8964 80.449 18.8527C80.8577 19.3814 81.1915 19.8502 81.1915 19.9064C81.1915 20.2777 86.8352 22.0364 88.1065 22.0552C88.5152 22.0552 89.0252 21.8789 89.884 21.4289ZM87.619 16.9927C89.0252 16.7189 89.7077 15.7027 90.2365 13.1264C90.784 10.3514 91.0577 5.99766 90.8027 4.14141C90.5665 2.46141 88.6915 1.71891 85.1177 1.83516C82.8902 1.91391 81.9715 2.12766 81.2102 2.77266C80.7415 3.16266 80.7415 3.20391 80.5277 5.05641C80.1377 8.61141 80.7227 13.6702 81.739 15.5639C82.2265 16.4827 82.6577 16.8127 83.554 16.9702C84.5702 17.1464 86.7377 17.1464 87.6152 16.9889L87.619 16.9927Z" fill="white"/>
</svg>
