<svg width="117" height="87" viewBox="0 0 117 87" fill="none" xmlns="http://www.w3.org/2000/svg">
<g clip-path="url(#clip0_212_232)">
<path d="M100.673 50.0779C96.6033 50.0988 93.0656 51.0707 90.1037 52.5076C89.0165 50.3734 87.9297 48.472 87.7382 47.0773C87.5248 45.4506 87.2693 44.4574 87.5248 42.5135C87.7807 40.5695 88.9315 37.8014 88.91 37.5903C88.889 37.3791 88.6541 36.3858 86.3101 36.365C83.9661 36.3437 81.9415 36.8086 81.7071 37.4212C81.4726 38.0339 81.0252 39.4286 80.7268 40.865C80.3219 42.9784 76.0388 50.5211 73.5883 54.4723C72.7995 52.9303 72.1177 51.5778 71.9682 50.5002C71.7553 48.8735 71.4993 47.8803 71.7553 45.9364C72.0112 43.9925 73.1619 41.2248 73.1405 41.0132C73.119 40.802 72.8845 39.8088 70.5405 39.7879C68.1961 39.7666 66.1715 40.2315 65.9376 40.8441C65.7031 41.4572 65.4472 42.8936 64.9573 44.2883C64.4669 45.6831 58.7771 58.2763 57.2855 61.5297C56.6827 62.8466 56.0503 64.15 55.3889 65.4389C55.3889 65.4389 55.3674 65.5023 55.3034 65.6079C55.0956 66.012 54.8827 66.4135 54.6645 66.8123V66.8331C54.3446 67.4041 54.0037 67.932 53.8332 67.932C53.7053 67.932 53.4708 66.4108 53.8757 64.34C54.7281 59.9665 56.7526 53.1628 56.7316 52.9303C56.7316 52.8035 57.115 51.6204 55.4104 51.0073C53.7478 50.3947 53.1514 51.4087 53.0019 51.4087C52.8529 51.4087 52.746 51.7681 52.746 51.7681C52.746 51.7681 54.6005 44.1193 49.2088 44.1193C45.842 44.1193 41.196 47.7747 38.8945 51.0707C36.2782 52.4824 33.6641 53.8981 31.0523 55.3179C29.7955 56.0152 28.4953 56.7126 27.2806 57.3673C27.1951 57.2831 27.1101 57.177 27.0247 57.0928C20.5036 50.1835 8.44225 45.3024 8.95364 36.027C9.14558 32.6462 10.3174 23.7718 32.118 12.996C50.0611 4.22711 64.3394 6.65677 66.8114 12.0449C70.3486 19.7362 59.161 34.0196 40.6207 36.09C33.5457 36.872 29.8375 34.1673 28.9002 33.1533C27.9199 32.0966 27.7705 32.0331 27.4081 32.2447C26.8117 32.5619 27.1951 33.5126 27.4081 34.0618C27.9624 35.4982 30.2425 38.0339 34.0996 39.2809C37.5093 40.3792 45.799 40.9923 55.8363 37.1466C67.0668 32.8361 75.8469 20.8559 73.2684 10.8196C70.6895 0.63519 53.6413 -2.72428 37.5093 2.95927C27.9199 6.34049 17.5203 11.6647 10.0404 18.5953C1.15388 26.8353 -0.252795 33.9983 0.322578 36.9989C2.39008 47.6478 17.2008 54.5784 23.125 59.7127C22.8266 59.8817 22.5492 60.0299 22.3152 60.1568C19.3529 61.6145 8.05836 67.467 5.24547 73.6581C2.04916 80.6729 5.75732 85.7021 8.2078 86.3778C15.8156 88.4698 23.6364 84.7089 27.8345 78.4966C32.0326 72.2847 31.5212 64.2132 29.5821 60.5157C29.5606 60.4735 29.5396 60.4309 29.4966 60.3888C30.2639 59.9452 31.0523 59.4803 31.8196 59.0367C33.2299 58.2101 34.658 57.4139 36.1031 56.6487C35.3783 58.6139 34.8454 60.9593 34.59 64.34C34.2701 68.3126 35.9107 73.4678 38.0632 75.496C39.0225 76.3841 40.1518 76.4049 40.8766 76.4049C43.391 76.4049 44.5208 74.3342 45.778 71.8832C47.3122 68.8831 48.6974 65.3967 48.6974 65.3967C48.6974 65.3967 46.9712 74.8204 51.6597 74.8204C53.3643 74.8204 55.0905 72.6227 55.8578 71.503V71.5239C55.8578 71.5239 55.9003 71.4604 55.9857 71.3127C56.1562 71.0381 56.2627 70.8687 56.2627 70.8687V70.827C56.9445 69.6434 58.4792 66.96 60.7592 62.5017C63.7 56.7547 66.5344 49.5709 66.5344 49.5709C66.5344 49.5709 66.7903 51.3245 67.6637 54.2403C68.1755 55.9518 69.2404 57.8322 70.0931 59.6493C69.4113 60.6004 68.9849 61.1283 68.9849 61.1283L69.0064 61.1496C68.452 61.8678 67.8556 62.6494 67.1948 63.4107C64.8718 66.1571 62.1019 69.3058 61.718 70.2139C61.2701 71.2914 61.3771 72.0735 62.2298 72.7074C62.8477 73.1723 63.9555 73.2353 65.0852 73.1723C67.1738 73.0242 68.644 72.5171 69.3683 72.2004C70.498 71.7989 71.8193 71.1858 73.055 70.2773C75.3355 68.608 76.7202 66.2205 76.5927 63.0726C76.5287 61.3399 75.9534 59.6071 75.25 57.98C75.4634 57.6845 75.6549 57.3886 75.8683 57.0928C79.4696 51.8737 82.2614 46.1475 82.2614 46.1475C82.2614 46.1475 82.5174 47.9011 83.3907 50.8174C83.8171 52.2964 84.6909 53.9023 85.4578 55.4656C82.0695 58.1916 79.981 61.3607 79.2351 63.4315C77.8929 67.2772 78.9367 69.0095 80.9187 69.4109C81.8136 69.6013 83.0923 69.1785 84.0301 68.777C85.2233 68.3969 86.63 67.7421 87.9727 66.7697C90.2531 65.1008 92.4477 62.7763 92.3197 59.6284C92.2558 58.1916 91.8723 56.7756 91.3394 55.4021C94.2163 54.2195 97.9245 53.5643 102.655 54.1135C112.799 55.2966 114.802 61.5719 114.418 64.2136C114.035 66.8544 111.904 68.2913 111.201 68.7349C110.497 69.1789 110.263 69.3267 110.327 69.6434C110.412 70.1083 110.753 70.0875 111.35 70.0027C112.181 69.855 116.678 67.8685 116.869 63.0087C117.189 56.7969 111.222 50.0145 100.673 50.0779ZM22.4217 76.2359C19.0544 79.87 14.3664 81.2434 12.3419 80.0816C10.1684 78.8346 11.0207 73.4678 15.1548 69.6226C17.6692 67.2772 20.9085 65.1004 23.061 63.7695C23.5509 63.4737 24.2758 63.0513 25.1496 62.523C25.2985 62.4383 25.384 62.3961 25.384 62.3961L25.8954 62.0789C27.4081 67.5726 25.9594 72.4115 22.4217 76.2359ZM46.9287 59.7127C45.7565 62.5443 43.306 69.7916 41.8144 69.3901C40.5357 69.0521 39.7469 63.5584 41.5584 58.1281C42.4747 55.4021 44.4138 52.1483 45.5436 50.8809C47.3762 48.8522 49.4007 48.1757 49.8906 49.0004C50.509 50.0779 47.6531 57.9378 46.9287 59.7127ZM67.1523 69.3054C66.6619 69.5591 66.1935 69.7281 65.9801 69.6013C65.8311 69.5165 66.1935 69.1785 66.1935 69.1785C66.1935 69.1785 68.7294 66.4743 69.7307 65.2485C70.3066 64.5303 70.988 63.6853 71.7128 62.7342V63.0087C71.7128 66.2418 68.5585 68.4182 67.1518 69.3054H67.1523ZM82.7514 65.7769C82.3889 65.5231 82.4529 64.6781 83.6677 62.0368C84.1365 61.0014 85.2443 59.2691 87.1414 57.5998C87.3543 58.2759 87.5038 58.9311 87.4823 59.5437C87.4608 63.6218 84.5204 65.143 82.7514 65.7769Z" fill="#CD6799"/>
</g>
<defs>
<clipPath id="clip0_212_232">
<rect width="117" height="87" fill="white"/>
</clipPath>
</defs>
</svg>
