<svg width="131" height="131" viewBox="0 0 131 131" fill="none" xmlns="http://www.w3.org/2000/svg">
<path d="M36.8438 56.0852C40.6646 40.8018 50.2167 33.1602 65.5 33.1602C88.425 33.1602 91.2906 50.3539 102.753 53.2195C110.395 55.1299 117.081 52.2643 122.812 44.6227C118.992 59.906 109.44 67.5477 94.1562 67.5477C71.2313 67.5477 68.3656 50.3539 56.9031 47.4883C49.2615 45.5779 42.575 48.4435 36.8438 56.0852ZM8.1875 90.4727C12.0083 75.1893 21.5604 67.5477 36.8438 67.5477C59.7687 67.5477 62.6344 84.7414 74.0969 87.607C81.7385 89.5174 88.425 86.6518 94.1562 79.0102C90.3354 94.2935 80.7833 101.935 65.5 101.935C42.575 101.935 39.7094 84.7414 28.2469 81.8758C20.6052 79.9654 13.9187 82.831 8.1875 90.4727Z" fill="#44A8B3"/>
</svg>
