<svg width="112" height="112" viewBox="0 0 112 112" fill="none" xmlns="http://www.w3.org/2000/svg">
<path d="M101.535 17.6062L81.3539 7.89021C80.2142 7.3407 78.9318 7.15936 77.6844 7.37133C76.4371 7.5833 75.2865 8.17808 74.3923 9.07321L8.32986 69.3012C7.52832 70.0285 7.04853 71.0444 6.99602 72.1255C6.94351 73.2065 7.32259 74.2642 8.04986 75.0657C8.13736 75.1602 8.22486 75.2512 8.31936 75.3352L13.7129 80.2352C14.4176 80.8767 15.3248 81.251 16.2768 81.2932C17.2289 81.3354 18.1656 81.0428 18.9244 80.4662L98.4969 20.1262C99.0979 19.6701 99.8143 19.3909 100.565 19.3199C101.317 19.2489 102.073 19.3889 102.748 19.7243C103.424 20.0597 103.993 20.5771 104.391 21.2182C104.789 21.8593 105 22.5987 105 23.3532V23.1187C105 21.9669 104.675 20.8384 104.062 19.8632C103.449 18.888 102.573 18.1057 101.535 17.6062Z" fill="#0065A9"/>
<path d="M101.535 94.3945L81.3539 104.114C80.2138 104.662 78.9318 104.842 77.6848 104.631C76.4378 104.419 75.2874 103.825 74.3923 102.931L8.32986 42.6995C7.52832 41.9722 7.04853 40.9563 6.99602 39.8753C6.94351 38.7942 7.32259 37.7366 8.04986 36.935C8.13736 36.8405 8.22486 36.7495 8.31936 36.6655L13.7129 31.7655C14.4183 31.1214 15.3276 30.7454 16.282 30.7032C17.2363 30.661 18.1753 30.9552 18.9349 31.5345L98.4969 91.8745C99.0979 92.3306 99.8143 92.6099 100.565 92.6809C101.317 92.7519 102.073 92.6118 102.748 92.2764C103.424 91.9411 103.993 91.4237 104.391 90.7826C104.789 90.1414 105 89.402 105 88.6475V88.8995C104.996 90.0483 104.669 91.1728 104.056 92.1446C103.444 93.1163 102.57 93.896 101.535 94.3945Z" fill="#007ACC"/>
<path d="M81.3539 104.113C80.2139 104.661 78.9319 104.841 77.6849 104.629C76.4379 104.417 75.2874 103.823 74.3924 102.93C74.895 103.426 75.5329 103.762 76.226 103.898C76.9192 104.033 77.6368 103.96 78.2889 103.689C78.941 103.418 79.4987 102.961 79.892 102.374C80.2853 101.788 80.4968 101.098 80.4999 100.392V11.6042C80.5005 10.8947 80.2905 10.201 79.8965 9.61097C79.5025 9.02094 78.9423 8.56111 78.2867 8.28975C77.6312 8.01839 76.9098 7.94769 76.2141 8.08663C75.5183 8.22557 74.8795 8.56788 74.3784 9.0702C75.2728 8.1754 76.423 7.58058 77.6702 7.36803C78.9173 7.15547 80.1997 7.33567 81.3399 7.8837L101.517 17.5857C102.559 18.0827 103.438 18.864 104.054 19.8394C104.67 20.8147 104.998 21.9445 105 23.0982V88.8982C105 90.051 104.675 91.1805 104.061 92.1564C103.447 93.1323 102.571 93.915 101.531 94.4142L81.3539 104.113Z" fill="#1F9CF0"/>
</svg>
